<mxfile host="app.diagrams.net" modified="2020-10-31T12:08:17.157Z" agent="5.0 (Windows NT 10.0; Win64; x64) AppleWebKit/537.36 (KHTML, like Gecko) Chrome/86.0.4240.111 Safari/537.36" etag="XPuN0wIVmGR_YDs8LB3h" version="13.8.8" type="github">
  <diagram name="Page-1" id="9f46799a-70d6-7492-0946-bef42562c5a5">
    <mxGraphModel dx="1831" dy="459" grid="1" gridSize="10" guides="1" tooltips="1" connect="1" arrows="1" fold="1" page="1" pageScale="1" pageWidth="1100" pageHeight="850" background="#ffffff" math="0" shadow="0">
      <root>
        <mxCell id="0" />
        <mxCell id="1" parent="0" />
        <mxCell id="-ds5uKC0SJlDk7dMVMrI-25" value="DQN" style="rounded=0;whiteSpace=wrap;html=1;" parent="1" vertex="1">
          <mxGeometry x="500" y="240" width="120" height="60" as="geometry" />
        </mxCell>
        <mxCell id="-ds5uKC0SJlDk7dMVMrI-26" value="Yolo" style="rounded=0;whiteSpace=wrap;html=1;" parent="1" vertex="1">
          <mxGeometry x="-290" y="240" width="120" height="60" as="geometry" />
        </mxCell>
        <mxCell id="-ds5uKC0SJlDk7dMVMrI-27" value="Visualization" style="rounded=0;whiteSpace=wrap;html=1;" parent="1" vertex="1">
          <mxGeometry x="760" y="240" width="120" height="60" as="geometry" />
        </mxCell>
        <mxCell id="-ds5uKC0SJlDk7dMVMrI-30" value="VideoStream" style="rounded=0;whiteSpace=wrap;html=1;" parent="1" vertex="1">
          <mxGeometry x="-760" y="240" width="120" height="60" as="geometry" />
        </mxCell>
        <mxCell id="-ds5uKC0SJlDk7dMVMrI-32" value="RoadInfoExtract" style="rounded=0;whiteSpace=wrap;html=1;" parent="1" vertex="1">
          <mxGeometry x="140" y="240" width="120" height="60" as="geometry" />
        </mxCell>
        <mxCell id="-ds5uKC0SJlDk7dMVMrI-55" value="Croped Intersection&#39;s Frame" style="swimlane;fontStyle=0;childLayout=stackLayout;horizontal=1;startSize=26;fillColor=#f8cecc;horizontalStack=0;resizeParent=1;resizeParentMax=0;resizeLast=0;collapsible=1;marginBottom=0;strokeColor=#b85450;" parent="1" vertex="1" collapsed="1">
          <mxGeometry x="-560" y="257" width="190" height="26" as="geometry">
            <mxRectangle x="-550" y="257" width="200" height="52" as="alternateBounds" />
          </mxGeometry>
        </mxCell>
        <mxCell id="-ds5uKC0SJlDk7dMVMrI-56" value="[ frame1, frame2, frame3, frame4 ]" style="text;strokeColor=none;fillColor=none;align=left;verticalAlign=top;spacingLeft=4;spacingRight=4;overflow=hidden;rotatable=0;points=[[0,0.5],[1,0.5]];portConstraint=eastwest;" parent="-ds5uKC0SJlDk7dMVMrI-55" vertex="1">
          <mxGeometry y="26" width="190" height="26" as="geometry" />
        </mxCell>
        <mxCell id="-ds5uKC0SJlDk7dMVMrI-65" value="State" style="swimlane;fontStyle=0;childLayout=stackLayout;horizontal=1;startSize=26;fillColor=#f8cecc;horizontalStack=0;resizeParent=1;resizeParentMax=0;resizeLast=0;collapsible=1;marginBottom=0;strokeColor=#b85450;" parent="1" vertex="1" collapsed="1">
          <mxGeometry x="350" y="190" width="70" height="26" as="geometry">
            <mxRectangle x="350" y="257" width="140" height="52" as="alternateBounds" />
          </mxGeometry>
        </mxCell>
        <mxCell id="-ds5uKC0SJlDk7dMVMrI-69" value="Cars Coordinate" style="swimlane;fontStyle=0;childLayout=stackLayout;horizontal=1;startSize=26;fillColor=#f8cecc;horizontalStack=0;resizeParent=1;resizeParentMax=0;resizeLast=0;collapsible=1;marginBottom=0;strokeColor=#b85450;" parent="1" vertex="1" collapsed="1">
          <mxGeometry x="-70" y="257" width="120" height="26" as="geometry">
            <mxRectangle x="10" y="180" width="140" height="52" as="alternateBounds" />
          </mxGeometry>
        </mxCell>
        <mxCell id="-ds5uKC0SJlDk7dMVMrI-70" value="Action" style="swimlane;fontStyle=0;childLayout=stackLayout;horizontal=1;startSize=26;fillColor=#f8cecc;horizontalStack=0;resizeParent=1;resizeParentMax=0;resizeLast=0;collapsible=1;marginBottom=0;strokeColor=#b85450;" parent="1" vertex="1" collapsed="1">
          <mxGeometry x="660" y="257" width="70" height="26" as="geometry">
            <mxRectangle x="350" y="257" width="140" height="52" as="alternateBounds" />
          </mxGeometry>
        </mxCell>
        <mxCell id="-ds5uKC0SJlDk7dMVMrI-71" value="Cars Number" style="swimlane;fontStyle=0;childLayout=stackLayout;horizontal=1;startSize=26;fillColor=#f8cecc;horizontalStack=0;resizeParent=1;resizeParentMax=0;resizeLast=0;collapsible=1;marginBottom=0;strokeColor=#b85450;" parent="1" vertex="1" collapsed="1">
          <mxGeometry x="325" y="340" width="120" height="26" as="geometry">
            <mxRectangle x="10" y="180" width="140" height="52" as="alternateBounds" />
          </mxGeometry>
        </mxCell>
        <mxCell id="-ds5uKC0SJlDk7dMVMrI-78" value="Frame" style="html=1;verticalAlign=bottom;endArrow=block;" parent="1" edge="1">
          <mxGeometry width="80" relative="1" as="geometry">
            <mxPoint x="-840" y="269.5" as="sourcePoint" />
            <mxPoint x="-760" y="269.5" as="targetPoint" />
          </mxGeometry>
        </mxCell>
        <mxCell id="-ds5uKC0SJlDk7dMVMrI-83" value="VideoStream" style="swimlane;fontStyle=1;align=center;verticalAlign=top;childLayout=stackLayout;horizontal=1;startSize=26;horizontalStack=0;resizeParent=1;resizeParentMax=0;resizeLast=0;collapsible=1;marginBottom=0;" parent="1" vertex="1">
          <mxGeometry x="-785" y="366" width="170" height="180" as="geometry" />
        </mxCell>
        <mxCell id="-ds5uKC0SJlDk7dMVMrI-84" value="- port : string&#xa;" style="text;strokeColor=none;fillColor=none;align=left;verticalAlign=top;spacingLeft=4;spacingRight=4;overflow=hidden;rotatable=0;points=[[0,0.5],[1,0.5]];portConstraint=eastwest;" parent="-ds5uKC0SJlDk7dMVMrI-83" vertex="1">
          <mxGeometry y="26" width="170" height="26" as="geometry" />
        </mxCell>
        <mxCell id="-ds5uKC0SJlDk7dMVMrI-87" value="- hostname : string&#xa;" style="text;strokeColor=none;fillColor=none;align=left;verticalAlign=top;spacingLeft=4;spacingRight=4;overflow=hidden;rotatable=0;points=[[0,0.5],[1,0.5]];portConstraint=eastwest;" parent="-ds5uKC0SJlDk7dMVMrI-83" vertex="1">
          <mxGeometry y="52" width="170" height="26" as="geometry" />
        </mxCell>
        <mxCell id="-ds5uKC0SJlDk7dMVMrI-85" value="" style="line;strokeWidth=1;fillColor=none;align=left;verticalAlign=middle;spacingTop=-1;spacingLeft=3;spacingRight=3;rotatable=0;labelPosition=right;points=[];portConstraint=eastwest;" parent="-ds5uKC0SJlDk7dMVMrI-83" vertex="1">
          <mxGeometry y="78" width="170" height="12" as="geometry" />
        </mxCell>
        <mxCell id="-ds5uKC0SJlDk7dMVMrI-86" value="-  init( self, hostname, port )&#xa;&#xa;+ receiveAndCrop( self ) : Mat" style="text;strokeColor=none;fillColor=none;align=left;verticalAlign=top;spacingLeft=4;spacingRight=4;overflow=hidden;rotatable=0;points=[[0,0.5],[1,0.5]];portConstraint=eastwest;" parent="-ds5uKC0SJlDk7dMVMrI-83" vertex="1">
          <mxGeometry y="90" width="170" height="90" as="geometry" />
        </mxCell>
        <mxCell id="7hyko6UUoV0qvqRd0kyF-1" value="YoloModel" style="swimlane;fontStyle=1;align=center;verticalAlign=top;childLayout=stackLayout;horizontal=1;startSize=26;horizontalStack=0;resizeParent=1;resizeParentMax=0;resizeLast=0;collapsible=1;marginBottom=0;" vertex="1" parent="1">
          <mxGeometry x="-315" y="366" width="170" height="180" as="geometry" />
        </mxCell>
        <mxCell id="7hyko6UUoV0qvqRd0kyF-2" value="- yoloPath : string&#xa;" style="text;strokeColor=none;fillColor=none;align=left;verticalAlign=top;spacingLeft=4;spacingRight=4;overflow=hidden;rotatable=0;points=[[0,0.5],[1,0.5]];portConstraint=eastwest;" vertex="1" parent="7hyko6UUoV0qvqRd0kyF-1">
          <mxGeometry y="26" width="170" height="26" as="geometry" />
        </mxCell>
        <mxCell id="7hyko6UUoV0qvqRd0kyF-3" value="- version : string&#xa;" style="text;strokeColor=none;fillColor=none;align=left;verticalAlign=top;spacingLeft=4;spacingRight=4;overflow=hidden;rotatable=0;points=[[0,0.5],[1,0.5]];portConstraint=eastwest;" vertex="1" parent="7hyko6UUoV0qvqRd0kyF-1">
          <mxGeometry y="52" width="170" height="26" as="geometry" />
        </mxCell>
        <mxCell id="7hyko6UUoV0qvqRd0kyF-4" value="" style="line;strokeWidth=1;fillColor=none;align=left;verticalAlign=middle;spacingTop=-1;spacingLeft=3;spacingRight=3;rotatable=0;labelPosition=right;points=[];portConstraint=eastwest;" vertex="1" parent="7hyko6UUoV0qvqRd0kyF-1">
          <mxGeometry y="78" width="170" height="12" as="geometry" />
        </mxCell>
        <mxCell id="7hyko6UUoV0qvqRd0kyF-5" value="-  init( self, yoloPath, version )&#xa;&#xa;- constructPath(self) : Mat&#xa;&#xa;+predict(self, " style="text;strokeColor=none;fillColor=none;align=left;verticalAlign=top;spacingLeft=4;spacingRight=4;overflow=hidden;rotatable=0;points=[[0,0.5],[1,0.5]];portConstraint=eastwest;" vertex="1" parent="7hyko6UUoV0qvqRd0kyF-1">
          <mxGeometry y="90" width="170" height="90" as="geometry" />
        </mxCell>
      </root>
    </mxGraphModel>
  </diagram>
</mxfile>
